<svg xmlns="http://www.w3.org/2000/svg" width="56" height="56" viewBox="0 0 56 56" fill="none"><path d="M0.682922 50.3085L9.78839 54.8615V43.0251L0.682922 38.472V50.3085Z" stroke="#C0C0BC" stroke-linejoin="round"></path><path d="M18.8945 38.472L9.78839 43.0251L0.682922 38.472L9.78839 33.9196L18.8945 38.472Z" stroke="#C0C0BC" stroke-linejoin="round"></path><path d="M9.78906 33.9196L18.8945 38.472V26.6335L9.78906 22.0811V33.9196Z" stroke="#C0C0BC" stroke-linejoin="round"></path><path d="M28.0007 22.0811L18.8945 26.6335L9.78906 22.0811L18.8945 17.5287L28.0007 22.0811Z" stroke="#C0C0BC" stroke-linejoin="round"></path><path d="M18.8952 17.5287L28.0007 22.0811V10.2432L18.8952 5.6922V17.5287Z" stroke="#C0C0BC" stroke-linejoin="round"></path><path d="M28.0007 33.9196L37.1055 38.472V26.6335L28.0007 22.0811V33.9196Z" stroke="#C0C0BC" stroke-linejoin="round"></path><path d="M46.2123 22.0811L37.1055 26.6335L28.0007 22.0811L37.1055 17.5287L46.2123 22.0811Z" stroke="#C0C0BC" stroke-linejoin="round"></path><path d="M18.8945 50.3085L27.9993 54.8615V43.0251L18.8945 38.472V50.3085Z" stroke="#C0C0BC" stroke-linejoin="round"></path><path d="M37.1055 38.472L27.9993 43.0251L18.8945 38.472L27.9993 33.9196L37.1055 38.472Z" stroke="#C0C0BC" stroke-linejoin="round"></path><path d="M37.1055 50.3085L46.2109 54.8615V43.0251L37.1055 38.472V50.3085Z" stroke="#C0C0BC" stroke-linejoin="round"></path><path d="M55.3171 38.472L46.2109 43.0251L37.1055 38.472L46.2109 33.9196L55.3171 38.472Z" stroke="#C0C0BC" stroke-linejoin="round"></path><path d="M18.8945 50.3085L9.78839 54.8615V43.0251L18.8945 38.472V50.3085Z" stroke="#C0C0BC" stroke-linejoin="round"></path><path d="M28.0007 33.9196L18.8945 38.472V26.6335L28.0007 22.0811V33.9196Z" stroke="#C0C0BC" stroke-linejoin="round"></path><path d="M37.1068 17.5287L28.0007 22.0811V10.2432L37.1068 5.6922V17.5287Z" stroke="#C0C0BC" stroke-linejoin="round"></path><path d="M46.2123 33.9196L37.1055 38.472V26.6335L46.2123 22.0811V33.9196Z" stroke="#C0C0BC" stroke-linejoin="round"></path><path d="M37.1055 50.3085L27.9993 54.8615V43.0251L37.1055 38.472V50.3085Z" stroke="#C0C0BC" stroke-linejoin="round"></path><path d="M55.3171 50.3085L46.2109 54.8615V43.0251L55.3171 38.472V50.3085Z" stroke="#C0C0BC" stroke-linejoin="round"></path><path d="M37.1068 5.69218L28.0007 10.2432L18.8952 5.69218L28.0007 1.13843L37.1068 5.69218Z" fill="#DB4047" stroke="#DB4047" stroke-linejoin="round"></path></svg>