<svg xmlns="http://www.w3.org/2000/svg" width="56" height="56" viewBox="0 0 56 56" fill="none"><path d="M50.75 37.752C50.75 46.7239 43.4758 54 34.5026 54C25.5248 54 18.25 46.7239 18.25 37.752C18.25 28.7742 25.5248 21.5 34.5026 21.5C43.4758 21.5 50.75 28.7742 50.75 37.752Z" stroke="#C0C0BC"></path><path d="M27.9948 40.9993L53.9999 2H2L27.9948 40.9993Z" stroke="#C0C0BC"></path><path d="M40.9987 40.9994L53.9999 54L40.9987 40.9994Z" stroke="#C0C0BC"></path><path d="M18.25 15.0013L2 31.2487L18.25 15.0013Z" stroke="#C0C0BC"></path><path d="M13.05 40.7679H3.76428V50.0536H13.05V40.7679Z" fill="#DB4047"></path><path d="M24.75 11.75L32.0612 16.625L39.3724 11.75L32.0612 6.87436L24.75 11.75Z" fill="#DB4047"></path></svg>