<svg xmlns="http://www.w3.org/2000/svg" width="56" height="56" viewBox="0 0 56 56" fill="none"><path d="M24.912 34.2079L10.7195 27.9987V44.0622M13.8083 48.7912L28.0001 54.9999V38.937" stroke="#C0C0BC" stroke-width="0.964284" stroke-linejoin="round"></path><path d="M31.0874 34.2081L45.2792 27.9995V44.063M28 38.9371V55L42.1904 48.792" stroke="#C0C0BC" stroke-width="0.964284" stroke-linejoin="round"></path><path d="M24.9113 14.7688L13.8097 9.9115M10.7209 11.9358L10.7202 28L24.912 34.2093M28.0008 32.1871V19.4978" stroke="#C0C0BC" stroke-width="0.964284"></path><path d="M42.1905 9.9115L31.0874 14.7688M28 19.4978V32.1871M31.0874 34.2093L45.2799 28V11.9351" stroke="#C0C0BC" stroke-width="0.964284"></path><path d="M42.1912 7.20941L28.0001 1.00012L13.8096 7.20874M13.809 9.91345L24.9106 14.77M31.0882 14.77L42.1912 9.91277" stroke="#C0C0BC" stroke-width="0.964284"></path><path d="M27.9994 19.4978C29.8633 19.4978 31.3744 17.9867 31.3744 16.1228C31.3744 14.2588 29.8633 12.7478 27.9994 12.7478C26.1354 12.7478 24.6244 14.2588 24.6244 16.1228C24.6244 17.9867 26.1354 19.4978 27.9994 19.4978Z" fill="#DB4047"></path><path d="M45.2799 11.9351C47.1438 11.9351 48.6549 10.4241 48.6549 8.5601C48.6549 6.69615 47.1438 5.18512 45.2799 5.18512C43.4159 5.18512 41.9049 6.69615 41.9049 8.5601C41.9049 10.4241 43.4159 11.9351 45.2799 11.9351Z" fill="#DB4047"></path><path d="M10.7201 11.9351C12.584 11.9351 14.0951 10.4241 14.0951 8.5601C14.0951 6.69615 12.584 5.18512 10.7201 5.18512C8.85612 5.18512 7.34509 6.69615 7.34509 8.5601C7.34509 10.4241 8.85612 11.9351 10.7201 11.9351Z" fill="#DB4047"></path><path d="M10.7201 50.8142C12.584 50.8142 14.0951 49.3032 14.0951 47.4392C14.0951 45.5753 12.584 44.0642 10.7201 44.0642C8.85612 44.0642 7.34509 45.5753 7.34509 47.4392C7.34509 49.3032 8.85612 50.8142 10.7201 50.8142Z" fill="#DB4047"></path><path d="M45.2799 50.8142C47.1438 50.8142 48.6549 49.3032 48.6549 47.4392C48.6549 45.5753 47.1438 44.0642 45.2799 44.0642C43.4159 44.0642 41.9049 45.5753 41.9049 47.4392C41.9049 49.3032 43.4159 50.8142 45.2799 50.8142Z" fill="#DB4047"></path><path d="M27.9994 38.937C29.8633 38.937 31.3744 37.4259 31.3744 35.562C31.3744 33.698 29.8633 32.187 27.9994 32.187C26.1354 32.187 24.6244 33.698 24.6244 35.562C24.6244 37.4259 26.1354 38.937 27.9994 38.937Z" fill="#DB4047"></path></svg>