<svg xmlns="http://www.w3.org/2000/svg" width="56" height="56" viewBox="0 0 56 56" fill="none"><path d="M36.6675 2H19.3376C17.6745 6.00833 16.7489 10.3911 16.7489 15.0009C16.7489 17.3305 16.9907 19.602 17.4379 21.7999C21.1524 21.5303 24.7092 20.6983 27.9982 19.3333V19.3342C29.9786 18.5117 32.0534 17.873 34.2018 17.4345C34.1446 16.6276 34.0796 15.8225 34.0796 15.0009C34.0805 10.3911 35.0061 6.00833 36.6675 2Z" stroke="#C0C0BC"></path><path d="M19.3342 53.9966H36.6658C38.3281 49.99 39.2537 45.6055 39.2537 40.9974C39.2537 38.6678 39.0136 36.3963 38.563 34.1984C34.8502 34.4662 31.2934 35.3 28.0044 36.665V36.6615C26.0249 37.4857 23.9501 38.1236 21.7999 38.5621C21.8597 39.3698 21.923 40.1758 21.923 40.9974C21.923 45.6055 20.9974 49.99 19.3342 53.9966Z" stroke="#C0C0BC"></path><path d="M2.00354 19.3315V36.6614C6.01361 38.3245 10.3955 39.2501 15.0035 39.2501C17.3323 39.2501 19.6038 39.0118 21.8017 38.5603C21.5339 34.8475 20.701 31.2898 19.3351 27.9999H19.3369C18.5161 26.0205 17.8765 23.9448 17.438 21.7972C16.6329 21.8553 15.826 21.9194 15.0035 21.9194C10.3955 21.9194 6.01361 20.9947 2.00354 19.3315Z" stroke="#C0C0BC"></path><path d="M53.9999 36.6649V19.3342C49.9924 17.6711 45.6062 16.7463 41.0008 16.7463C38.6712 16.7463 36.3996 16.9864 34.2018 17.4362C34.4678 21.1499 35.3024 24.7067 36.6674 27.9965H36.6657C37.4865 29.9777 38.1252 32.0534 38.5628 34.1993C39.3706 34.1429 40.1774 34.0762 41.0008 34.0762C45.6062 34.0762 49.9924 35.0018 53.9999 36.6649Z" stroke="#C0C0BC"></path><path d="M1.99988 19.3333V2H19.3367C17.6735 6.00833 16.7479 10.3911 16.7479 15.0009C16.7479 17.3305 16.9897 19.602 17.4369 21.7999C16.6301 21.8562 15.8223 21.9203 15.0016 21.9203C10.3927 21.9195 6.00994 20.9947 1.99988 19.3333Z" stroke="#C0C0BC"></path><path d="M53.9964 19.3342V2H36.6674C35.006 6.00833 34.0804 10.3911 34.0804 15.0009C34.0804 15.8216 34.1446 16.6276 34.2026 17.4345C36.3988 16.9864 38.6703 16.7463 40.9982 16.7463C45.6045 16.7463 49.9907 17.6702 53.9964 19.3342Z" stroke="#C0C0BC"></path><path d="M53.9966 36.6667V54H36.6589C38.3212 49.9899 39.2468 45.6072 39.2468 40.9991C39.2468 38.6695 39.0067 36.3971 38.5578 34.2001C39.3673 34.1421 40.1724 34.0788 40.9957 34.0788C45.6047 34.0797 49.9874 35.0053 53.9966 36.6667Z" stroke="#C0C0BC"></path><path d="M1.99988 36.6649V54H19.328C20.9911 49.9899 21.9167 45.6072 21.9167 40.9991C21.9167 40.1766 21.8543 39.3698 21.7937 38.5638C19.5993 39.0136 17.3277 39.2536 14.999 39.2536C10.3927 39.2536 6.00648 38.3281 1.99988 36.6649Z" stroke="#C0C0BC"></path><path d="M21.8026 38.5629C23.9485 38.1235 26.0216 37.4865 27.9993 36.6658V36.6692C31.2926 35.2999 34.8529 34.467 38.5674 34.201C38.1289 32.0525 37.4876 29.9794 36.6668 28L36.6686 27.9982C35.3036 24.7084 34.469 21.1507 34.2029 17.4353C32.0544 17.8747 29.9796 18.5126 27.9993 19.335V19.3333C24.7103 20.6974 21.1535 21.5303 17.439 21.7998C17.8784 23.9448 18.5171 26.0179 19.3378 27.9974C20.702 31.2881 21.5348 34.8475 21.8026 38.5629Z" stroke="#DB4047"></path></svg>