<svg width="90" height="30" viewBox="0 0 90 30" fill="none" xmlns="http://www.w3.org/2000/svg">
<path d="M11.1156 29.8828C7.68957 29.8828 4.97411 28.9438 2.96924 27.0658C0.989747 25.1624 0 22.5866 0 19.3382C0 16.0644 1.02781 13.4504 3.08344 11.4963C5.13907 9.54221 7.8926 8.56516 11.344 8.56516C14.7701 8.56516 17.4728 9.50414 19.4523 11.3821C21.4572 13.2601 22.4596 15.836 22.4596 19.1098C22.4596 22.4089 21.4318 25.0356 19.3762 26.9897C17.3459 28.9184 14.5924 29.8828 11.1156 29.8828ZM11.6866 28.0936C12.5749 28.0936 13.222 27.4972 13.6281 26.3045C14.0341 25.0863 14.2371 23.1703 14.2371 20.5563C14.2371 17.2825 13.9326 14.7701 13.3235 13.019C12.7398 11.2425 11.8896 10.3543 10.773 10.3543C9.07268 10.3543 8.22251 12.8667 8.22251 17.8916C8.22251 21.1146 8.52705 23.6271 9.13612 25.4289C9.7452 27.2054 10.5954 28.0936 11.6866 28.0936Z" fill="#E52F42"/>
<path d="M33.9324 29.8827C31.0901 29.8827 28.8061 28.9691 27.0804 27.1419C25.3546 25.3147 24.4918 22.8911 24.4918 19.8711C24.4918 16.5212 25.5196 13.8057 27.5752 11.7247C29.6562 9.61831 32.359 8.56512 35.6835 8.56512C37.9929 8.56512 39.7948 8.86965 41.0891 9.47873V15.7598H40.8607L34.3893 10.3923C34.3131 10.367 34.1862 10.3543 34.0086 10.3543C33.2219 10.3543 32.5366 10.9633 31.953 12.1815C31.3693 13.3996 31.0774 14.8208 31.0774 16.445C31.0774 18.8306 31.7245 20.7847 33.0188 22.3074C34.3385 23.8301 36.0261 24.5914 38.0818 24.5914C39.8582 24.5914 41.1525 24.0331 41.9646 22.9164L42.155 23.0306C41.7743 25.2132 40.8734 26.9008 39.4522 28.0936C38.031 29.2864 36.1911 29.8827 33.9324 29.8827Z" fill="white"/>
<path d="M55.3661 29.1214V29.3117H43.5652V29.1214L45.2021 27.0277V11.8008H42.5374V11.6105L45.2783 8.94579C45.9381 6.23033 47.1055 4.0605 48.7804 2.4363C50.4554 0.8121 52.3968 0 54.6047 0C56.1274 0 57.244 0.215714 57.9546 0.647143V7.1947H57.7643L50.3031 3.88285C49.8209 3.88285 49.3768 4.14932 48.9708 4.68226C48.5647 5.2152 48.3617 5.82428 48.3617 6.50949C48.3617 8.26058 49.5925 9.13612 52.0542 9.13612H57.1552L56.7745 11.8008H53.2724V27.0277L55.3661 29.1214Z" fill="white"/>
<path d="M68.656 29.8827C65.2299 29.8827 62.5145 28.9437 60.5096 27.0658C58.5301 25.1624 57.5403 22.5865 57.5403 19.3381C57.5403 16.0644 58.5682 13.4504 60.6238 11.4963C62.6794 9.54217 65.4329 8.56512 68.8844 8.56512C72.3104 8.56512 75.0132 9.50411 76.9927 11.3821C78.9976 13.2601 80 15.836 80 19.1097C80 22.4089 78.9722 25.0355 76.9165 26.9896C74.8863 28.9184 72.1328 29.8827 68.656 29.8827ZM69.227 28.0936C70.1152 28.0936 70.7624 27.4972 71.1684 26.3044C71.5745 25.0863 71.7775 23.1702 71.7775 20.5563C71.7775 17.2825 71.4729 14.7701 70.8639 13.019C70.2802 11.2425 69.43 10.3543 68.3134 10.3543C66.613 10.3543 65.7629 12.8667 65.7629 17.8916C65.7629 21.1146 66.0674 23.627 66.6765 25.4289C67.2855 27.2053 68.1357 28.0936 69.227 28.0936Z" fill="white"/>
<path d="M88.7336 28.6261C88.0651 29.2688 87.1524 29.5902 85.9954 29.5902C84.8384 29.5902 83.9128 29.2688 83.2186 28.6261C82.5501 27.9833 82.2158 27.1734 82.2158 26.1964C82.2158 25.1936 82.5501 24.3837 83.2186 23.7667C83.9128 23.1239 84.8384 22.8025 85.9954 22.8025C87.1524 22.8025 88.0651 23.1239 88.7336 23.7667C89.4278 24.3837 89.7749 25.1936 89.7749 26.1964C89.7749 27.1734 89.4278 27.9833 88.7336 28.6261Z" fill="white"/>
</svg>
