<svg xmlns="http://www.w3.org/2000/svg" width="56" height="56" viewBox="0 0 56 56" fill="none"><path d="M28 7.99867C29.841 7.99867 31.3334 6.50628 31.3334 4.66533C31.3334 2.82438 29.841 1.332 28 1.332C26.1591 1.332 24.6667 2.82438 24.6667 4.66533C24.6667 6.50628 26.1591 7.99867 28 7.99867Z" fill="#DB4047"></path><path d="M28 54.6673C29.841 54.6673 31.3334 53.175 31.3334 51.334C31.3334 49.4931 29.841 48.0007 28 48.0007C26.1591 48.0007 24.6667 49.4931 24.6667 51.334C24.6667 53.175 26.1591 54.6673 28 54.6673Z" fill="#DB4047"></path><path d="M6.78743 10.118C8.62838 10.118 10.1208 8.62561 10.1208 6.78466C10.1208 4.94371 8.62838 3.45132 6.78743 3.45132C4.94649 3.45132 3.4541 4.94371 3.4541 6.78466C3.4541 8.62561 4.94649 10.118 6.78743 10.118Z" fill="#DB4047"></path><path d="M49.2132 52.546C51.0542 52.546 52.5465 51.0536 52.5465 49.2127C52.5465 47.3717 51.0542 45.8793 49.2132 45.8793C47.3723 45.8793 45.8799 47.3717 45.8799 49.2127C45.8799 51.0536 47.3723 52.546 49.2132 52.546Z" fill="#DB4047"></path><path d="M6.78743 52.546C8.62838 52.546 10.1208 51.0536 10.1208 49.2127C10.1208 47.3717 8.62838 45.8793 6.78743 45.8793C4.94649 45.8793 3.4541 47.3717 3.4541 49.2127C3.4541 51.0536 4.94649 52.546 6.78743 52.546Z" fill="#DB4047"></path><path d="M49.2132 10.118C51.0542 10.118 52.5465 8.62561 52.5465 6.78466C52.5465 4.94371 51.0542 3.45132 49.2132 3.45132C47.3723 3.45132 45.8799 4.94371 45.8799 6.78466C45.8799 8.62561 47.3723 10.118 49.2132 10.118Z" fill="#DB4047"></path><path d="M4.66732 31.3327C6.50827 31.3327 8.00065 29.8403 8.00065 27.9993C8.00065 26.1584 6.50827 24.666 4.66732 24.666C2.82637 24.666 1.33398 26.1584 1.33398 27.9993C1.33398 29.8403 2.82637 31.3327 4.66732 31.3327Z" fill="#DB4047"></path><path d="M51.334 31.3327C53.175 31.3327 54.6673 29.8403 54.6673 27.9993C54.6673 26.1584 53.175 24.666 51.334 24.666C49.4931 24.666 48.0007 26.1584 48.0007 27.9993C48.0007 29.8403 49.4931 31.3327 51.334 31.3327Z" fill="#DB4047"></path><path d="M34.77 17.218C33.7206 13.6887 32.1413 10.3253 30.0293 7.29333C32.1413 10.3253 33.7206 13.6887 34.77 17.218Z" stroke="#C0C0BC"></path><path d="M37.8372 33.1353C43.5239 26.6273 47.4946 18.6387 48.8246 10.0813C47.4946 18.6387 43.5239 26.6273 37.8372 33.1353Z" stroke="#C0C0BC"></path><path d="M10.0833 48.8226C18.64 47.4926 26.6273 43.5226 33.1346 37.8373C26.6273 43.5226 18.64 47.4926 10.0833 48.8226Z" stroke="#C0C0BC"></path><path d="M21.2308 38.782C22.2801 42.3113 23.8588 45.6753 25.9708 48.7073C23.8588 45.6753 22.2801 42.3113 21.2308 38.782Z" stroke="#C0C0BC"></path><path d="M7.17743 10.082C8.50743 18.6393 12.4774 26.628 18.1634 33.136C12.4774 26.6273 8.50743 18.6387 7.17743 10.082Z" stroke="#C0C0BC"></path><path d="M22.8646 37.838C29.3726 43.5227 37.3592 47.494 45.9172 48.824C37.3592 47.494 29.3726 43.5227 22.8646 37.838Z" stroke="#C0C0BC"></path><path d="M7.29395 30.0293C10.3259 32.142 13.6926 33.7113 17.2226 34.7573C13.6926 33.7113 10.3259 32.142 7.29395 30.0293Z" stroke="#C0C0BC"></path><path d="M23.7321 36.066C26.5654 36.38 29.4355 36.382 32.2681 36.0653C29.4348 36.3813 26.5654 36.3793 23.7321 36.066Z" stroke="#C0C0BC"></path><path d="M38.7825 34.7693C42.3099 33.72 45.6752 32.1407 48.7065 30.0293C45.6752 32.1407 42.3099 33.72 38.7825 34.7693Z" stroke="#C0C0BC"></path><path d="M30.0286 48.706C32.1413 45.674 33.7106 42.308 34.7566 38.7773C33.7106 42.308 32.1413 45.674 30.0286 48.706Z" stroke="#C0C0BC"></path><path d="M36.0654 32.268C36.3808 29.4353 36.3828 26.564 36.0654 23.7307C36.3821 26.5647 36.3801 29.4353 36.0654 32.268Z" stroke="#C0C0BC"></path><path d="M10.0827 7.17599C18.6407 8.50666 26.628 12.4773 33.1347 18.162C26.628 12.4767 18.6407 8.50599 10.0827 7.17599Z" stroke="#C0C0BC"></path><path d="M37.8372 22.8647C43.5212 29.3713 47.4912 37.3593 48.8219 45.916C47.4912 37.3593 43.5212 29.3713 37.8372 22.8647Z" stroke="#C0C0BC"></path><path d="M48.7059 25.9707C45.6752 23.8587 42.3099 22.28 38.7825 21.23C42.3099 22.28 45.6752 23.8587 48.7059 25.9707Z" stroke="#C0C0BC"></path><path d="M45.9172 7.17734C37.3606 8.508 29.3726 12.4773 22.8646 18.162C29.3726 12.4767 37.3606 8.50734 45.9172 7.17734Z" stroke="#C0C0BC"></path><path d="M7.17871 45.916C8.50804 37.358 12.478 29.3713 18.1634 22.8647C12.478 29.3713 8.50804 37.358 7.17871 45.916Z" stroke="#C0C0BC"></path><path d="M25.9708 7.29266C23.8581 10.3247 22.2881 13.6913 21.2435 17.2207C22.2881 13.692 23.8581 10.3253 25.9708 7.29266Z" stroke="#C0C0BC"></path><path d="M19.9339 23.7313C19.6199 26.5633 19.6166 29.436 19.9346 32.2687C19.6173 29.4353 19.6206 26.5633 19.9339 23.7313Z" stroke="#C0C0BC"></path><path d="M17.222 21.2427C13.6926 22.2867 10.3266 23.8573 7.29462 25.9707C10.3266 23.8573 13.6926 22.2867 17.222 21.2427Z" stroke="#C0C0BC"></path><path d="M32.2674 19.9347C29.4348 19.616 26.5641 19.62 23.7314 19.9327C26.5648 19.62 29.4348 19.616 32.2674 19.9347Z" stroke="#C0C0BC"></path><path d="M20.4498 23.782C22.2908 23.782 23.7832 22.2896 23.7832 20.4487C23.7832 18.6077 22.2908 17.1153 20.4498 17.1153C18.6089 17.1153 17.1165 18.6077 17.1165 20.4487C17.1165 22.2896 18.6089 23.782 20.4498 23.782Z" stroke="#C0C0BC"></path><path d="M20.4498 38.8833C22.2908 38.8833 23.7832 37.391 23.7832 35.55C23.7832 33.7091 22.2908 32.2167 20.4498 32.2167C18.6089 32.2167 17.1165 33.7091 17.1165 35.55C17.1165 37.391 18.6089 38.8833 20.4498 38.8833Z" stroke="#C0C0BC"></path><path d="M35.5501 38.8833C37.3911 38.8833 38.8835 37.391 38.8835 35.55C38.8835 33.7091 37.3911 32.2167 35.5501 32.2167C33.7092 32.2167 32.2168 33.7091 32.2168 35.55C32.2168 37.391 33.7092 38.8833 35.5501 38.8833Z" stroke="#C0C0BC"></path><path d="M38.8835 20.4487C38.8835 22.2913 37.3908 23.782 35.5495 23.782C33.7075 23.782 32.2161 22.292 32.2161 20.4487C32.2161 18.6067 33.7075 17.116 35.5495 17.116C37.3908 17.116 38.8835 18.6073 38.8835 20.4487Z" stroke="#C0C0BC"></path></svg>