<svg xmlns="http://www.w3.org/2000/svg" width="56" height="56" viewBox="0 0 56 56" fill="none"><path d="M45.4843 11.7443L45.485 24.5854H45.4836M42.3579 6.9638L28.0021 0.682922L13.6435 6.96448M10.5171 11.7436V24.5854M13.6435 29.3665L28.0021 35.6488L42.3586 29.3679" stroke="#C0C0BC"></path><path d="M45.4843 31.4146L45.485 44.2557H45.4836M42.3592 26.6335L28 20.3519L13.6435 26.6341M10.5171 31.4153V44.2564M13.6435 49.0369L28 55.3171L42.3586 49.0376" stroke="#C0C0BC"></path><path d="M45.4845 11.7443C47.3703 11.7443 48.8991 10.2155 48.8991 8.32967C48.8991 6.44382 47.3703 4.91504 45.4845 4.91504C43.5986 4.91504 42.0698 6.44382 42.0698 8.32967C42.0698 10.2155 43.5986 11.7443 45.4845 11.7443Z" fill="#DB4047"></path><path d="M45.4845 31.4146C47.3703 31.4146 48.8991 29.8858 48.8991 28C48.8991 26.1141 47.3703 24.5854 45.4845 24.5854C43.5986 24.5854 42.0698 26.1141 42.0698 28C42.0698 29.8858 43.5986 31.4146 45.4845 31.4146Z" fill="#DB4047"></path><path d="M10.5164 31.4153C12.4026 31.4153 13.9317 29.8862 13.9317 28C13.9317 26.1138 12.4026 24.5847 10.5164 24.5847C8.63016 24.5847 7.10107 26.1138 7.10107 28C7.10107 29.8862 8.63016 31.4153 10.5164 31.4153Z" fill="#DB4047"></path><path d="M45.4845 51.085C47.3703 51.085 48.8991 49.5562 48.8991 47.6703C48.8991 45.7845 47.3703 44.2557 45.4845 44.2557C43.5986 44.2557 42.0698 45.7845 42.0698 47.6703C42.0698 49.5562 43.5986 51.085 45.4845 51.085Z" fill="#DB4047"></path><path d="M10.5164 11.745C12.4026 11.745 13.9317 10.2159 13.9317 8.32966C13.9317 6.44343 12.4026 4.91434 10.5164 4.91434C8.63016 4.91434 7.10107 6.44343 7.10107 8.32966C7.10107 10.2159 8.63016 11.745 10.5164 11.745Z" fill="#DB4047"></path><path d="M10.5164 51.0857C12.4026 51.0857 13.9317 49.5566 13.9317 47.6704C13.9317 45.7841 12.4026 44.255 10.5164 44.255C8.63016 44.255 7.10107 45.7841 7.10107 47.6704C7.10107 49.5566 8.63016 51.0857 10.5164 51.0857Z" fill="#DB4047"></path></svg>