<svg xmlns="http://www.w3.org/2000/svg" width="56" height="56" viewBox="0 0 56 56" fill="none"><path d="M5.64619 8.19756C7.05452 8.19756 8.19619 7.05589 8.19619 5.64756C8.19619 4.23924 7.05452 3.09756 5.64619 3.09756C4.23786 3.09756 3.09619 4.23924 3.09619 5.64756C3.09619 7.05589 4.23786 8.19756 5.64619 8.19756Z" fill="#DB4047"></path><path d="M16.573 8.19756C17.9813 8.19756 19.1229 7.05589 19.1229 5.64756C19.1229 4.23924 17.9813 3.09756 16.573 3.09756C15.1646 3.09756 14.0229 4.23924 14.0229 5.64756C14.0229 7.05589 15.1646 8.19756 16.573 8.19756Z" fill="#DB4047"></path><path d="M27.998 9.90243C30.072 9.90243 31.7534 8.22107 31.7534 6.14702C31.7534 4.07296 30.072 2.3916 27.998 2.3916C25.9239 2.3916 24.2426 4.07296 24.2426 6.14702C24.2426 8.22107 25.9239 9.90243 27.998 9.90243Z" stroke="#C0C0BC"></path><path d="M38.9261 9.90245C41.0006 9.90245 42.6822 8.22079 42.6822 6.14636C42.6822 4.07192 41.0006 2.39026 38.9261 2.39026C36.8517 2.39026 35.17 4.07192 35.17 6.14636C35.17 8.22079 36.8517 9.90245 38.9261 9.90245Z" stroke="#C0C0BC"></path><path d="M49.853 11.6111C52.8708 11.6111 55.3171 9.16476 55.3171 6.14702C55.3171 3.12928 52.8708 0.682922 49.853 0.682922C46.8353 0.682922 44.3889 3.12928 44.3889 6.14702C44.3889 9.16476 46.8353 11.6111 49.853 11.6111Z" stroke="#C0C0BC"></path><path d="M5.64619 19.1244C7.05452 19.1244 8.19619 17.9827 8.19619 16.5744C8.19619 15.1661 7.05452 14.0244 5.64619 14.0244C4.23786 14.0244 3.09619 15.1661 3.09619 16.5744C3.09619 17.9827 4.23786 19.1244 5.64619 19.1244Z" fill="#DB4047"></path><path d="M20.8273 17.0738C20.8273 19.1465 19.1473 20.8286 17.0725 20.8286C14.9964 20.8286 13.3151 19.1465 13.3151 17.0738C13.3151 14.9977 14.9971 13.3164 17.0725 13.3164C19.1473 13.3171 20.8273 14.9977 20.8273 17.0738Z" stroke="#C0C0BC"></path><path d="M27.998 20.8286C30.072 20.8286 31.7534 19.1472 31.7534 17.0732C31.7534 14.9991 30.072 13.3177 27.998 13.3177C25.9239 13.3177 24.2426 14.9991 24.2426 17.0732C24.2426 19.1472 25.9239 20.8286 27.998 20.8286Z" stroke="#C0C0BC"></path><path d="M44.3882 17.0739C44.3882 20.0903 41.9433 22.5359 38.9275 22.5359C35.909 22.5359 33.462 20.0903 33.462 17.0739C33.462 14.0553 35.909 11.6084 38.9275 11.6084C41.9433 11.6091 44.3882 14.056 44.3882 17.0739Z" stroke="#C0C0BC"></path><path d="M49.8536 20.8293C51.9281 20.8293 53.6097 19.1476 53.6097 17.0732C53.6097 14.9987 51.9281 13.3171 49.8536 13.3171C47.7792 13.3171 46.0975 14.9987 46.0975 17.0732C46.0975 19.1476 47.7792 20.8293 49.8536 20.8293Z" stroke="#C0C0BC"></path><path d="M6.14434 31.7561C8.21878 31.7561 9.90044 30.0744 9.90044 28C9.90044 25.9256 8.21878 24.2439 6.14434 24.2439C4.06991 24.2439 2.38824 25.9256 2.38824 28C2.38824 30.0744 4.06991 31.7561 6.14434 31.7561Z" stroke="#C0C0BC"></path><path d="M17.0712 31.7561C19.1456 31.7561 20.8273 30.0744 20.8273 28C20.8273 25.9256 19.1456 24.2439 17.0712 24.2439C14.9967 24.2439 13.3151 25.9256 13.3151 28C13.3151 30.0744 14.9967 31.7561 17.0712 31.7561Z" stroke="#C0C0BC"></path><path d="M27.9987 33.4634C31.0161 33.4634 33.4621 31.0174 33.4621 28C33.4621 24.9826 31.0161 22.5366 27.9987 22.5366C24.9813 22.5366 22.5353 24.9826 22.5353 28C22.5353 31.0174 24.9813 33.4634 27.9987 33.4634Z" stroke="#C0C0BC"></path><path d="M38.9261 31.7561C41.0006 31.7561 42.6822 30.0744 42.6822 28C42.6822 25.9256 41.0006 24.2439 38.9261 24.2439C36.8517 24.2439 35.17 25.9256 35.17 28C35.17 30.0744 36.8517 31.7561 38.9261 31.7561Z" stroke="#C0C0BC"></path><path d="M49.8536 31.7561C51.9281 31.7561 53.6097 30.0744 53.6097 28C53.6097 25.9256 51.9281 24.2439 49.8536 24.2439C47.7792 24.2439 46.0975 25.9256 46.0975 28C46.0975 30.0744 47.7792 31.7561 49.8536 31.7561Z" stroke="#C0C0BC"></path><path d="M6.14434 42.6829C8.21878 42.6829 9.90044 41.0012 9.90044 38.9268C9.90044 36.8524 8.21878 35.1707 6.14434 35.1707C4.06991 35.1707 2.38824 36.8524 2.38824 38.9268C2.38824 41.0012 4.06991 42.6829 6.14434 42.6829Z" stroke="#C0C0BC"></path><path d="M17.0718 44.3902C20.0892 44.3902 22.5352 41.9442 22.5352 38.9268C22.5352 35.9095 20.0892 33.4634 17.0718 33.4634C14.0545 33.4634 11.6084 35.9095 11.6084 38.9268C11.6084 41.9442 14.0545 44.3902 17.0718 44.3902Z" stroke="#C0C0BC"></path><path d="M27.998 42.6822C30.072 42.6822 31.7534 41.0009 31.7534 38.9268C31.7534 36.8528 30.072 35.1714 27.998 35.1714C25.9239 35.1714 24.2426 36.8528 24.2426 38.9268C24.2426 41.0009 25.9239 42.6822 27.998 42.6822Z" stroke="#C0C0BC"></path><path d="M38.9261 42.6829C41.0006 42.6829 42.6822 41.0012 42.6822 38.9268C42.6822 36.8524 41.0006 35.1707 38.9261 35.1707C36.8517 35.1707 35.17 36.8524 35.17 38.9268C35.17 41.0012 36.8517 42.6829 38.9261 42.6829Z" stroke="#C0C0BC"></path><path d="M50.3542 41.9781C51.7625 41.9781 52.9042 40.8364 52.9042 39.4281C52.9042 38.0197 51.7625 36.8781 50.3542 36.8781C48.9459 36.8781 47.8042 38.0197 47.8042 39.4281C47.8042 40.8364 48.9459 41.9781 50.3542 41.9781Z" fill="#DB4047"></path><path d="M6.14565 55.3164C9.16264 55.3164 11.6084 52.8706 11.6084 49.8537C11.6084 46.8367 9.16264 44.3909 6.14565 44.3909C3.12867 44.3909 0.682922 46.8367 0.682922 49.8537C0.682922 52.8706 3.12867 55.3164 6.14565 55.3164Z" stroke="#C0C0BC"></path><path d="M20.8273 49.8537C20.8273 51.9263 19.1473 53.6084 17.0725 53.6084C14.9964 53.6084 13.3151 51.9263 13.3151 49.8537C13.3151 47.7769 14.9971 46.0976 17.0725 46.0976C19.1473 46.0976 20.8273 47.7769 20.8273 49.8537Z" stroke="#C0C0BC"></path><path d="M27.998 53.6091C30.072 53.6091 31.7534 51.9277 31.7534 49.8537C31.7534 47.7796 30.072 46.0982 27.998 46.0982C25.9239 46.0982 24.2426 47.7796 24.2426 49.8537C24.2426 51.9277 25.9239 53.6091 27.998 53.6091Z" stroke="#C0C0BC"></path><path d="M39.426 52.9042C40.8343 52.9042 41.976 51.7625 41.976 50.3542C41.976 48.9459 40.8343 47.8042 39.426 47.8042C38.0177 47.8042 36.876 48.9459 36.876 50.3542C36.876 51.7625 38.0177 52.9042 39.426 52.9042Z" fill="#DB4047"></path><path d="M50.3542 52.9049C51.7625 52.9049 52.9042 51.7632 52.9042 50.3549C52.9042 48.9465 51.7625 47.8049 50.3542 47.8049C48.9459 47.8049 47.8042 48.9465 47.8042 50.3549C47.8042 51.7632 48.9459 52.9049 50.3542 52.9049Z" fill="#DB4047"></path></svg>