<svg xmlns="http://www.w3.org/2000/svg" width="56" height="56" viewBox="0 0 56 56" fill="none"><path d="M3.4993 52.4993C5.43191 52.4993 6.9986 50.9326 6.9986 49C6.9986 47.0674 5.43191 45.5007 3.4993 45.5007C1.56669 45.5007 0 47.0674 0 49C0 50.9326 1.56669 52.4993 3.4993 52.4993Z" fill="#DB4047"></path><path d="M27.9993 10.5C29.9319 10.5 31.4986 8.93331 31.4986 7.0007C31.4986 5.06809 29.9319 3.5014 27.9993 3.5014C26.0667 3.5014 24.5 5.06809 24.5 7.0007C24.5 8.93331 26.0667 10.5 27.9993 10.5Z" fill="#DB4047"></path><path d="M27.9993 36.7493C29.9319 36.7493 31.4986 35.1826 31.4986 33.25C31.4986 31.3174 29.9319 29.7507 27.9993 29.7507C26.0667 29.7507 24.5 31.3174 24.5 33.25C24.5 35.1826 26.0667 36.7493 27.9993 36.7493Z" fill="#DB4047"></path><path d="M52.5 52.5C54.433 52.5 56 50.933 56 49C56 47.067 54.433 45.5 52.5 45.5C50.567 45.5 49 47.067 49 49C49 50.933 50.567 52.5 52.5 52.5Z" fill="#DB4047"></path><path d="M29.7554 10.0114L50.7421 45.9893L29.7554 10.0114Z" stroke="#C0C0BC"></path><path d="M6.99805 49H49.0008H6.99805Z" stroke="#C0C0BC"></path><path d="M5.25635 45.9893L26.243 10.0114L5.25635 45.9893Z" stroke="#C0C0BC"></path><path d="M30.9375 35.1393L49.5603 47.1107L30.9375 35.1393Z" stroke="#C0C0BC"></path><path d="M6.43799 47.1107L25.0608 35.1393L6.43799 47.1107Z" stroke="#C0C0BC"></path><path d="M28 29.75V10.5V29.75Z" stroke="#C0C0BC"></path></svg>