<svg xmlns="http://www.w3.org/2000/svg" width="56" height="56" viewBox="0 0 56 56" fill="none"><path d="M27.9999 15.0013C31.5895 15.0013 34.4995 12.0914 34.4995 8.50176C34.4995 4.91215 31.5895 2.0022 27.9999 2.0022C24.4103 2.0022 21.5004 4.91215 21.5004 8.50176C21.5004 12.0914 24.4103 15.0013 27.9999 15.0013Z" stroke="#C0C0BC"></path><path d="M27.9999 54C31.5895 54 34.4995 51.0901 34.4995 47.5004C34.4995 43.9108 31.5895 41.0009 27.9999 41.0009C24.4103 41.0009 21.5004 43.9108 21.5004 47.5004C21.5004 51.0901 24.4103 54 27.9999 54Z" stroke="#C0C0BC"></path><path d="M8.50127 15.0013C12.0909 15.0013 15.0008 12.0914 15.0008 8.50176C15.0008 4.91215 12.0909 2.0022 8.50127 2.0022C4.91166 2.0022 2.00171 4.91215 2.00171 8.50176C2.00171 12.0914 4.91166 15.0013 8.50127 15.0013Z" stroke="#C0C0BC"></path><path d="M47.4986 15.0013C51.0882 15.0013 53.9981 12.0914 53.9981 8.50176C53.9981 4.91215 51.0882 2.0022 47.4986 2.0022C43.909 2.0022 40.999 4.91215 40.999 8.50176C40.999 12.0914 43.909 15.0013 47.4986 15.0013Z" stroke="#C0C0BC"></path><path d="M8.50127 54C12.0909 54 15.0008 51.0901 15.0008 47.5004C15.0008 43.9108 12.0909 41.0009 8.50127 41.0009C4.91166 41.0009 2.00171 43.9108 2.00171 47.5004C2.00171 51.0901 4.91166 54 8.50127 54Z" stroke="#C0C0BC"></path><path d="M47.4986 54C51.0882 54 53.9981 51.0901 53.9981 47.5004C53.9981 43.9108 51.0882 41.0009 47.4986 41.0009C43.909 41.0009 40.999 43.9108 40.999 47.5004C40.999 51.0901 43.909 54 47.4986 54Z" stroke="#C0C0BC"></path><path d="M8.50127 34.5007C12.0909 34.5007 15.0008 31.5907 15.0008 28.0011C15.0008 24.4115 12.0909 21.5016 8.50127 21.5016C4.91166 21.5016 2.00171 24.4115 2.00171 28.0011C2.00171 31.5907 4.91166 34.5007 8.50127 34.5007Z" stroke="#C0C0BC"></path><path d="M27.9999 34.5007C31.5895 34.5007 34.4995 31.5907 34.4995 28.0011C34.4995 24.4115 31.5895 21.5016 27.9999 21.5016C24.4103 21.5016 21.5004 24.4115 21.5004 28.0011C21.5004 31.5907 24.4103 34.5007 27.9999 34.5007Z" fill="#DB4047"></path><path d="M47.4986 34.5007C51.0882 34.5007 53.9981 31.5907 53.9981 28.0011C53.9981 24.4115 51.0882 21.5016 47.4986 21.5016C43.909 21.5016 40.999 24.4115 40.999 28.0011C40.999 31.5907 43.909 34.5007 47.4986 34.5007Z" stroke="#C0C0BC"></path><path d="M28 34.502V40.9996V34.502Z" stroke="#C0C0BC"></path><path d="M28 15.0007V21.5002V15.0007Z" stroke="#C0C0BC"></path><path d="M13.097 13.097L23.4041 23.404L13.097 13.097Z" stroke="#C0C0BC"></path><path d="M42.9035 42.904L32.5958 32.595L42.9035 42.904Z" stroke="#C0C0BC"></path><path d="M42.908 13.1016L32.5997 23.4086L42.908 13.1016Z" stroke="#C0C0BC"></path><path d="M13.1023 42.9079L23.4087 32.6009L13.1023 42.9079Z" stroke="#C0C0BC"></path><path d="M34.5009 28.0011H40.9998H34.5009Z" stroke="#C0C0BC"></path><path d="M15.0009 28.0011H21.5011H15.0009Z" stroke="#C0C0BC"></path></svg>