<svg xmlns="http://www.w3.org/2000/svg" width="56" height="56" viewBox="0 0 56 56" fill="none"><path d="M53.8895 5.68292C53.8895 8.1682 51.8748 10.1829 49.3895 10.1829C46.9042 10.1829 44.8895 8.1682 44.8895 5.68292C44.8895 3.19764 46.9042 1.18292 49.3895 1.18292C51.8748 1.18292 53.8895 3.19764 53.8895 5.68292Z" stroke="#C0C0BC"></path><path d="M35.5109 10.2561C33.2425 10.2561 31.4025 8.41618 31.4025 6.14701C31.4025 3.87628 33.2427 2.03589 35.5109 2.03589C37.7819 2.03589 39.6213 3.87574 39.6213 6.14701C39.6213 8.41614 37.7827 10.2561 35.5109 10.2561Z" stroke="#C0C0BC"></path><path d="M26.1341 6.14636C26.1341 7.94465 24.6763 9.40245 22.878 9.40245C21.0798 9.40245 19.6219 7.94465 19.6219 6.14636C19.6219 4.34806 21.0798 2.89026 22.878 2.89026C24.6763 2.89026 26.1341 4.34806 26.1341 6.14636Z" stroke="#C0C0BC"></path><path d="M14.353 6.14634C14.353 7.47317 13.2774 8.54877 11.9505 8.54877C10.6237 8.54877 9.5481 7.47317 9.5481 6.14634C9.5481 4.81951 10.6237 3.7439 11.9505 3.7439C13.2774 3.7439 14.353 4.81951 14.353 6.14634Z" stroke="#C0C0BC"></path><path d="M2.73108 8.19443C3.86221 8.19443 4.77918 7.27747 4.77918 6.14633C4.77918 5.0152 3.86221 4.09824 2.73108 4.09824C1.59995 4.09824 0.682983 5.0152 0.682983 6.14633C0.682983 7.27747 1.59995 8.19443 2.73108 8.19443Z" fill="#DB4047"></path><path d="M53.8895 16.6097C53.8895 19.095 51.8748 21.1097 49.3895 21.1097C46.9042 21.1097 44.8895 19.095 44.8895 16.6097C44.8895 14.1245 46.9042 12.1097 49.3895 12.1097C51.8748 12.1097 53.8895 14.1245 53.8895 16.6097Z" stroke="#C0C0BC"></path><path d="M35.5109 21.1823C33.2424 21.1823 31.4025 19.343 31.4025 17.0732C31.4025 14.8032 33.2426 12.9627 35.5109 12.9627C37.7819 12.9627 39.6213 14.8033 39.6213 17.0732C39.6213 19.3429 37.7828 21.1823 35.5109 21.1823Z" stroke="#C0C0BC"></path><path d="M26.1334 17.0725C26.1334 18.8704 24.6759 20.3279 22.878 20.3279C21.0801 20.3279 19.6226 18.8704 19.6226 17.0725C19.6226 15.2746 21.0801 13.8171 22.878 13.8171C24.6759 13.8171 26.1334 15.2746 26.1334 17.0725Z" stroke="#C0C0BC"></path><path d="M14.353 17.0725C14.353 18.3993 13.2774 19.4749 11.9505 19.4749C10.6237 19.4749 9.5481 18.3993 9.5481 17.0725C9.5481 15.7457 10.6237 14.67 11.9505 14.67C13.2774 14.67 14.353 15.7457 14.353 17.0725Z" stroke="#C0C0BC"></path><path d="M2.73103 19.1213C3.86254 19.1213 4.77981 18.204 4.77981 17.0725C4.77981 15.941 3.86254 15.0237 2.73103 15.0237C1.59952 15.0237 0.682251 15.941 0.682251 17.0725C0.682251 18.204 1.59952 19.1213 2.73103 19.1213Z" fill="#DB4047"></path><path d="M53.8903 27.5366C53.8903 30.0219 51.8755 32.0366 49.3903 32.0366C46.905 32.0366 44.8903 30.0219 44.8903 27.5366C44.8903 25.0513 46.905 23.0366 49.3903 23.0366C51.8755 23.0366 53.8903 25.0513 53.8903 27.5366Z" stroke="#C0C0BC"></path><path d="M35.5109 32.1084C33.2424 32.1084 31.4025 30.2691 31.4025 27.9993C31.4025 25.7295 33.2424 23.8903 35.5109 23.8903C37.7821 23.8903 39.6213 25.7296 39.6213 27.9993C39.6213 30.2691 37.7828 32.1084 35.5109 32.1084Z" stroke="#C0C0BC"></path><path d="M26.1328 27.9993C26.1328 29.7969 24.6756 31.2541 22.878 31.2541C21.0805 31.2541 19.6233 29.7969 19.6233 27.9993C19.6233 26.2018 21.0805 24.7446 22.878 24.7446C24.6756 24.7446 26.1328 26.2018 26.1328 27.9993Z" stroke="#C0C0BC"></path><path d="M14.353 28C14.353 29.3268 13.2774 30.4024 11.9505 30.4024C10.6237 30.4024 9.5481 29.3268 9.5481 28C9.5481 26.6732 10.6237 25.5976 11.9505 25.5976C13.2774 25.5976 14.353 26.6732 14.353 28Z" stroke="#C0C0BC"></path><path d="M2.73103 30.0474C3.86254 30.0474 4.77981 29.1302 4.77981 27.9986C4.77981 26.8671 3.86254 25.9499 2.73103 25.9499C1.59952 25.9499 0.682251 26.8671 0.682251 27.9986C0.682251 29.1302 1.59952 30.0474 2.73103 30.0474Z" fill="#DB4047"></path><path d="M53.8895 38.4627C53.8895 40.948 51.8748 42.9627 49.3895 42.9627C46.9042 42.9627 44.8895 40.948 44.8895 38.4627C44.8895 35.9775 46.9042 33.9627 49.3895 33.9627C51.8748 33.9627 53.8895 35.9775 53.8895 38.4627Z" stroke="#C0C0BC"></path><path d="M35.5109 43.0359C33.2424 43.0359 31.4025 41.1966 31.4025 38.9268C31.4025 36.6562 33.2426 34.8164 35.5109 34.8164C37.782 34.8164 39.6213 36.6556 39.6213 38.9268C39.6213 41.1966 37.7828 43.0359 35.5109 43.0359Z" stroke="#C0C0BC"></path><path d="M26.1334 38.9261C26.1334 40.724 24.6759 42.1815 22.878 42.1815C21.0801 42.1815 19.6226 40.724 19.6226 38.9261C19.6226 37.1282 21.0801 35.6707 22.878 35.6707C24.6759 35.6707 26.1334 37.1282 26.1334 38.9261Z" stroke="#C0C0BC"></path><path d="M14.353 38.9262C14.353 40.253 13.2774 41.3286 11.9505 41.3286C10.6237 41.3286 9.5481 40.253 9.5481 38.9262C9.5481 37.5993 10.6237 36.5237 11.9505 36.5237C13.2774 36.5237 14.353 37.5993 14.353 38.9262Z" stroke="#C0C0BC"></path><path d="M2.73103 40.9749C3.86254 40.9749 4.77981 40.0576 4.77981 38.9261C4.77981 37.7946 3.86254 36.8773 2.73103 36.8773C1.59952 36.8773 0.682251 37.7946 0.682251 38.9261C0.682251 40.0576 1.59952 40.9749 2.73103 40.9749Z" fill="#DB4047"></path><path d="M53.8895 49.3903C53.8895 51.8755 51.8748 53.8903 49.3895 53.8903C46.9042 53.8903 44.8895 51.8755 44.8895 49.3903C44.8895 46.905 46.9042 44.8903 49.3895 44.8903C51.8748 44.8903 53.8895 46.905 53.8895 49.3903Z" stroke="#C0C0BC"></path><path d="M35.5109 53.9627C33.2424 53.9627 31.4025 52.1235 31.4025 49.8537C31.4025 47.5831 33.2425 45.7439 35.5109 45.7439C37.7821 45.7439 39.6213 47.5832 39.6213 49.8537C39.6213 52.1234 37.7828 53.9627 35.5109 53.9627Z" stroke="#C0C0BC"></path><path d="M26.1341 49.8537C26.1341 51.652 24.6763 53.1098 22.878 53.1098C21.0798 53.1098 19.6219 51.652 19.6219 49.8537C19.6219 48.0554 21.0798 46.5976 22.878 46.5976C24.6763 46.5976 26.1341 48.0554 26.1341 49.8537Z" stroke="#C0C0BC"></path><path d="M14.353 49.8537C14.353 51.1805 13.2774 52.2561 11.9505 52.2561C10.6237 52.2561 9.5481 51.1805 9.5481 49.8537C9.5481 48.5268 10.6237 47.4512 11.9505 47.4512C13.2774 47.4512 14.353 48.5268 14.353 49.8537Z" stroke="#C0C0BC"></path><path d="M2.73103 51.9024C3.86254 51.9024 4.77981 50.9852 4.77981 49.8537C4.77981 48.7221 3.86254 47.8049 2.73103 47.8049C1.59952 47.8049 0.682251 48.7221 0.682251 49.8537C0.682251 50.9852 1.59952 51.9024 2.73103 51.9024Z" fill="#DB4047"></path></svg>